<svg viewBox="1 -16 511.999 511" xmlns="http://www.w3.org/2000/svg"><path d="M486.34 338.754v-18.89c0-1.134-.082-2.262-.2-3.38a36.73 36.73 0 005.165-3.71c6.957-6.016 10.629-13.958 10.62-22.965-.003-7.707-2.84-15.055-7.741-20.73 3.847-4.571 6.035-10.392 5.921-16.454-.199-10.77-7.296-19.95-16.992-23.332a31.932 31.932 0 003.137-13.844v-5.504c14.367-1 25.75-13 25.75-27.613 0-2.113-.445-52.309-39.168-99.969-19.68-24.222-45.73-43.406-77.437-57.02C357.043 8.88 310.145.52 255.996.5 187.796.523 131.48 13.71 88.61 39.688a7.512 7.512 0 00-2.535 10.316c2.153 3.547 6.77 4.684 10.317 2.531C136.887 28 190.586 15.547 255.996 15.523c52.098.02 97 7.965 133.473 23.625 29.449 12.645 53.574 30.372 71.703 52.688 35.398 43.566 35.805 88.602 35.805 90.496 0 6.984-5.68 12.664-12.664 12.664H27.688c-6.985 0-12.665-5.68-12.665-12.664 0-1.887.247-19.125 8.836-42.816 9.395-25.922 24.68-48.465 45.422-67 3.094-2.766 3.364-7.516.598-10.606a7.513 7.513 0 00-10.606-.597C.676 113.68 0 179.555 0 182.332c0 14.613 11.383 26.613 25.746 27.613v5.504c0 4.996 1.149 9.73 3.192 13.953a26.1 26.1 0 00-9.836 6.27c-4.774 4.863-7.332 11.226-7.207 17.91a25.053 25.053 0 005.718 15.508c-4.898 5.676-7.73 13.023-7.734 20.719-.008 9.007 3.664 16.949 10.621 22.964 1.668 1.442 3.52 2.743 5.512 3.91a31.924 31.924 0 00-.176 3.18v18.875C11.43 339.7 0 351.715 0 366.36c0 61.98 50.426 112.403 112.402 112.403h287.196C461.574 478.762 512 428.34 512 366.359c0-14.582-11.336-26.562-25.66-27.605zm-4.86-37.344c-6.906 5.973-19.566 8.457-33.046 6.485-9.543-1.399-14.567-4.055-19.883-6.872-1.223-.644-2.457-1.3-3.746-1.937l17.062-17.367a11.469 11.469 0 018.137-3.41h24.437c2.336 0 4.633-.317 6.868-.946a16.726 16.726 0 015.597 12.457c0 4.575-1.824 8.477-5.426 11.59zM40.77 210.023h430.46v5.426c0 5.832-2.933 10.988-7.398 14.082-.125.09-.254.172-.383.254-.32.211-.648.41-.98.598-.117.066-.23.133-.344.195-.426.227-.86.438-1.305.629l-.074.035c-.496.207-1.004.395-1.523.555-.059.02-.118.035-.176.05a14.94 14.94 0 01-1.324.34 15.865 15.865 0 01-1.59.266c-.149.016-.293.035-.442.05-.527.052-1.058.083-1.597.083H57.902c-9.445 0-17.132-7.688-17.132-17.133zm-10.946 36.172c2.043-2.078 4.86-3.273 7.735-3.273h3.648a31.983 31.983 0 0016.7 4.683h396.187c.668 0 1.328-.027 1.984-.066.211-.012.418-.031.625-.047.461-.039.922-.086 1.379-.144.223-.028.45-.051.672-.082a31.783 31.783 0 001.742-.301c.242-.05.48-.11.723-.164a30.534 30.534 0 002.066-.54c.317-.093.63-.199.942-.3.3-.098.597-.195.894-.3a39.62 39.62 0 001.52-.602c.3-.13.597-.27.894-.407.281-.129.559-.261.832-.398.293-.149.586-.293.875-.45.328-.175.653-.363.977-.55.195-.113.394-.215.59-.332h4.097c5.512 0 10.078 4.48 10.18 9.984.074 3.836-2.27 7.48-5.965 9.278h-.004c-1.504.73-3.078 1.105-4.676 1.105H450c-7.043 0-13.914 2.879-18.852 7.906L400.7 302.187c-7.258 7.391-18.765 8.391-27.168 2.708a26.87 26.87 0 01-.543-.38 20.8 20.8 0 01-1.383-1.07.008.008 0 00-.007-.008l-39.438-33.792a26.45 26.45 0 00-17.191-6.356H37.094a10.06 10.06 0 01-4.465-1.05h-.004c-3.453-1.696-5.64-5.122-5.71-8.938-.052-2.617.983-5.14 2.91-7.106zm-4.922 43.621c0-4.77 2.067-9.285 5.543-12.402 2.157.594 4.38.895 6.649.895h277.875c2.722 0 5.355.976 7.422 2.742l31.187 26.726c-.625.024-1.277.035-1.953.035-9.887 0-14.383-2.69-20.07-6.097-6.446-3.86-13.75-8.235-27.793-8.235-14.04 0-21.344 4.375-27.79 8.235-5.687 3.406-10.179 6.097-20.07 6.097s-14.382-2.69-20.07-6.097c-6.445-3.86-13.75-8.235-27.789-8.235-14.043 0-21.348 4.375-27.793 8.235-5.688 3.406-10.18 6.097-20.07 6.097s-14.383-2.69-20.07-6.097c-6.446-3.86-13.75-8.235-27.794-8.235-14.836 0-22.074 3.836-29.074 7.543-5.312 2.813-10.332 5.473-19.875 6.868-13.48 1.972-26.14-.512-33.043-6.48-3.601-3.114-5.426-7.016-5.422-11.595zm374.696 173.926H112.402c-53.695 0-97.379-43.687-97.379-97.383 0-6.984 5.68-12.664 12.665-12.664h336.73a7.512 7.512 0 000-15.023H40.859v-16.45c4.27.891 8.817 1.36 13.54 1.36 3.632 0 7.367-.273 11.148-.824 12.105-1.774 18.812-5.324 24.73-8.457 6.114-3.239 10.942-5.797 22.043-5.797 9.887 0 14.383 2.691 20.07 6.098 6.446 3.859 13.75 8.234 27.794 8.234 14.039 0 21.343-4.375 27.789-8.234 5.687-3.407 10.18-6.098 20.07-6.098s14.383 2.691 20.07 6.098c6.446 3.859 13.75 8.234 27.793 8.234 14.04 0 21.344-4.375 27.79-8.234 5.687-3.407 10.179-6.098 20.07-6.098s14.382 2.691 20.07 6.098c6.445 3.859 13.75 8.234 27.789 8.234 6.688 0 12.297-.969 17.688-3.055a36.404 36.404 0 0016.152 3.774c9.457 0 18.89-3.649 25.957-10.84l2.101-2.137c2.825.996 5.29 2.29 8.008 3.727 5.918 3.132 12.625 6.68 24.73 8.453 3.782.554 7.516.824 11.15.824 4.859 0 9.53-.496 13.91-1.437v16.527h-71.95a7.512 7.512 0 000 15.023h84.942c6.984 0 12.667 5.68 12.667 12.664-.003 53.696-43.687 97.383-97.382 97.383zm0 0"/></svg>