<svg viewBox="0 0 64 64" xmlns="http://www.w3.org/2000/svg"><circle cx="7.9" cy="12.2" fill="#49897A" r="1.3"/><path fill="#49897A" d="M9.7 34.1h2.9V37H9.7zM30.6 10.8h2.9v2.9h-2.9z"/><circle cx="56.1" cy="12.2" fill="#49897A" r="1.3"/><path fill="#49897A" d="M51.5 34.1h2.9V37h-2.9z"/><path d="M33 29.4c0 .6-.4 1-1 1s-1-.4-1-1V18.8l-9.8 19.1c1.5 1.3 4.9 4.8 5.1 10.4h11.4c.2-5.7 3.6-9.2 5.1-10.4L33 18.8v10.6z" fill="#A3D3C7"/><path d="M25.3 50.3h-1.4c-.1 0-.2.1-.2.2V53c0 .1.1.2.2.2h15.8c.1 0 .2-.1.2-.2v-2.5c0-.1-.1-.2-.2-.2H25.3z" fill="#49897A"/><path d="M56.1 8.9c-1.5 0-2.7 1-3.1 2.3H35.4V9.8c0-.6-.4-1-1-1h-4.9c-.6 0-1 .4-1 1v1.4H11.1C10.7 9.9 9.4 8.9 8 8.9c-1.8 0-3.3 1.5-3.3 3.3 0 1.8 1.5 3.3 3.3 3.3 1.5 0 2.7-1 3.1-2.3h11.8c-7.3 3.3-12.3 10.5-12.7 18.9H8.7c-.6 0-1 .4-1 1V38c0 .6.4 1 1 1h4.9c.6 0 1-.4 1-1v-4.9c0-.6-.4-1-1-1h-1.4c.5-9.3 7.3-17 16.4-18.6v1.1c0 .6.4 1 1 1h.8L19.1 37.7c-.2.4-.1 1 .3 1.3 0 0 4.6 3.2 4.9 9.3h-.4c-1.2 0-2.2 1-2.2 2.2V53c0 1.2 1 2.2 2.2 2.2h15.8c1.2 0 2.2-1 2.2-2.2v-2.5c0-1.2-1-2.2-2.2-2.2.3-6.1 4.7-9.2 4.9-9.3.4-.3.6-.8.3-1.3l-11.3-22h.8c.6 0 1-.4 1-1v-1.1c9.1 1.6 15.9 9.3 16.4 18.6h-1.4c-.6 0-1 .4-1 1V38c0 .6.4 1 1 1h4.9c.6 0 1-.4 1-1v-4.9c0-.6-.4-1-1-1h-1.5c-.4-8.3-5.4-15.5-12.7-18.9h11.8c.4 1.3 1.7 2.3 3.1 2.3 1.8 0 3.3-1.5 3.3-3.3.1-1.8-1.4-3.3-3.2-3.3zM7.9 13.5c-.7 0-1.3-.6-1.3-1.3 0-.7.6-1.3 1.3-1.3.7 0 1.3.6 1.3 1.3 0 .8-.6 1.3-1.3 1.3zm4.6 20.6V37H9.7v-2.9h2.8zm18.1-23.3h2.9v2.9h-2.9v-2.9zm9.1 39.5c.1 0 .2.1.2.2V53c0 .1-.1.2-.2.2H23.9c-.1 0-.2-.1-.2-.2v-2.5c0-.1.1-.2.2-.2h15.8zm3.1-12.4c-1.5 1.3-4.9 4.8-5.1 10.4H26.3c-.2-5.7-3.6-9.2-5.1-10.4L31 18.8v10.5c0 .6.4 1 1 1s1-.4 1-1V18.8l9.8 19.1zm11.5-3.8V37h-2.9v-2.9h2.9zm1.8-20.6c-.7 0-1.3-.6-1.3-1.3 0-.7.6-1.3 1.3-1.3.7 0 1.3.6 1.3 1.3 0 .8-.6 1.3-1.3 1.3z" fill="#101A1E"/></svg>