<svg viewBox="0 0 96 96"><path d="M49.69 4.03a47.208 47.208 0 00-3.38 0C22.79 4.92 4 24.27 4 48s18.79 43.08 42.31 43.97a47.208 47.208 0 003.38 0C73.21 91.08 92 71.73 92 48S73.21 4.92 49.69 4.03zM83.77 44H67.86c-.91-13.4-6.271-24.09-10.74-30.84C71.33 16.88 82.13 29.06 83.77 44zM48.01 14.18c3.93 5.12 10.7 15.8 11.83 29.82H36.16c1.13-13.96 7.92-24.68 11.85-29.82zM59.84 52c-1.13 13.96-7.91 24.68-11.85 29.82-3.93-5.12-10.7-15.8-11.83-29.82h23.68zM38.88 13.16C34.41 19.91 29.05 30.6 28.14 44H12.23c1.64-14.94 12.44-27.12 26.65-30.84zM12.23 52h15.91c.91 13.39 6.26 24.08 10.73 30.83-14.21-3.71-25-15.89-26.64-30.83zm44.9 30.83C61.6 76.08 66.95 65.39 67.86 52h15.91c-1.64 14.94-12.43 27.12-26.64 30.83z"/></svg>