<svg width="32" height="32" fill="none" xmlns="http://www.w3.org/2000/svg"><path d="M0 4.923a2.462 2.462 0 0 1 2.462-2.461h27.076A2.462 2.462 0 0 1 32 4.923v24.615A2.462 2.462 0 0 1 29.538 32H2.462A2.462 2.462 0 0 1 0 29.538V4.924Z" fill="#fff"/><path fill-rule="evenodd" clip-rule="evenodd" d="M29.538 3.692H2.462c-.68 0-1.231.551-1.231 1.231v24.615c0 .68.55 1.231 1.23 1.231H29.54c.68 0 1.23-.55 1.23-1.23V4.922c0-.68-.55-1.23-1.23-1.23ZM2.462 2.462A2.462 2.462 0 0 0 0 4.923v24.615A2.462 2.462 0 0 0 2.462 32h27.076A2.462 2.462 0 0 0 32 29.538V4.924a2.462 2.462 0 0 0-2.462-2.461H2.462Z" fill="#000"/><path d="M0 4.923a2.462 2.462 0 0 1 2.462-2.461h27.076A2.462 2.462 0 0 1 32 4.923v6.154H0V4.923Z" fill="url(#a)"/><path fill-rule="evenodd" clip-rule="evenodd" d="M29.538 3.692H2.462c-.68 0-1.231.551-1.231 1.231v4.923h29.538V4.923c0-.68-.55-1.23-1.23-1.23ZM2.462 2.462A2.462 2.462 0 0 0 0 4.923v6.154h32V4.923a2.462 2.462 0 0 0-2.462-2.461H2.462Z" fill="#000"/><path fill-rule="evenodd" clip-rule="evenodd" d="M24 8V0h1.23v8H24ZM6.77 8V0H8v8H6.77Z" fill="#000"/><defs><linearGradient id="a" x1="16" y1="2.462" x2="16" y2="11.077" gradientUnits="userSpaceOnUse"><stop offset=".524" stop-color="#FE7F8B"/><stop offset=".524" stop-color="#FABBC1"/></linearGradient></defs></svg>