<svg width="32" height="32" fill="none" xmlns="http://www.w3.org/2000/svg"><path d="M0 2.453C0 1.098 1.124 0 2.51 0H19.45c4.505 0 8.157 3.57 8.157 7.974v23.92H2.51c-1.386 0-2.51-1.097-2.51-2.452V2.453Z" fill="url(#a)"/><path d="M2.51 1.227H19.45c3.812 0 6.902 3.02 6.902 6.747v9.2h1.255v-9.2C27.608 3.57 23.956 0 19.45 0H2.51C1.124 0 0 1.098 0 2.453v26.989c0 1.355 1.124 2.453 2.51 2.453h3.765v-1.227H2.51c-.693 0-1.255-.549-1.255-1.226V2.453c0-.677.562-1.226 1.255-1.226Z" fill="#000"/><path fill-rule="evenodd" clip-rule="evenodd" d="M19.451 0h-.628v7.974h8.785C27.608 3.57 23.956 0 19.45 0Z" fill="#E2E2E2"/><path fill-rule="evenodd" clip-rule="evenodd" d="M20.078 1.254v5.493h6.161c-.553-2.944-3.062-5.22-6.16-5.493Zm0-1.23c3.794.281 6.861 3.1 7.434 6.723.063.4.096.81.096 1.227h-8.785V0h.628c.211 0 .42.008.627.023ZM11.294 20.883v4.785c.775.118 1.729.133 2.517-.11.472-.146.853-.373 1.116-.695.259-.315.446-.77.446-1.45 0-.68-.187-1.154-.454-1.495-.273-.348-.663-.601-1.139-.775-.781-.286-1.72-.329-2.486-.26Zm0 6.024c.874.113 1.941.114 2.895-.18.64-.197 1.259-.537 1.717-1.096.464-.565.722-1.303.722-2.218s-.258-1.66-.713-2.24c-.45-.575-1.06-.947-1.695-1.18-1.253-.457-2.71-.415-3.662-.25l-.519.088V32h1.255v-5.093ZM29.2 21.32c-.524.085-.912.256-1.07.488-.237.347-.377.854-.451 1.325a6.174 6.174 0 0 0-.07.737l-.001.042v1.648h3.137v1.226h-3.137V32h-1.255v-8.079h.627-.627v-.025a4.313 4.313 0 0 1 .01-.266c.012-.172.033-.412.076-.684.082-.525.256-1.246.647-1.819.47-.688 1.336-.924 1.91-1.017a6.026 6.026 0 0 1 1.125-.071H32v1.227H30.082l-.01-.001-.05-.002h-.193c-.166.005-.39.019-.629.057Zm-11.318-1.28h.628c1.01 0 2.557.21 3.872 1.05 1.357.866 2.402 2.364 2.402 4.776 0 2.408-1.04 3.973-2.378 4.914C21.1 31.7 19.55 32 18.51 32h-.628V20.04Zm1.255 1.257v9.435c.777-.097 1.725-.377 2.536-.947 1.015-.715 1.856-1.91 1.856-3.919 0-2.003-.836-3.113-1.833-3.749-.81-.517-1.764-.745-2.559-.82Z" fill="#000"/><defs><linearGradient id="a" x1="-5.647" y1="8.28" x2="26.137" y2="32.587" gradientUnits="userSpaceOnUse"><stop offset=".483" stop-color="#FFF9BF"/><stop offset=".483" stop-color="#FFEF5E"/></linearGradient></defs></svg>