<svg width="32" height="32" fill="none" xmlns="http://www.w3.org/2000/svg"><path d="M0 2.462A2.462 2.462 0 0 1 2.462 0h27.076A2.462 2.462 0 0 1 32 2.462v27.076A2.462 2.462 0 0 1 29.538 32H2.462A2.462 2.462 0 0 1 0 29.538V2.462Z" fill="url(#a)"/><path fill-rule="evenodd" clip-rule="evenodd" d="M29.538 1.23H2.462c-.68 0-1.231.552-1.231 1.232v27.076c0 .68.55 1.231 1.23 1.231H29.54c.68 0 1.23-.55 1.23-1.23V2.461c0-.68-.55-1.231-1.23-1.231ZM2.462 0A2.462 2.462 0 0 0 0 2.462v27.076A2.462 2.462 0 0 0 2.462 32h27.076A2.462 2.462 0 0 0 32 29.538V2.462A2.462 2.462 0 0 0 29.538 0H2.462Z" fill="#000"/><path d="M10.667 10.574c0-1.335 1.06-2.417 2.37-2.417h5.926c1.31 0 2.37 1.082 2.37 2.417v11.48c0 1.335-1.06 2.417-2.37 2.417h-5.926c-1.31 0-2.37-1.082-2.37-2.417v-11.48Z" fill="#C9F7CA"/><path fill-rule="evenodd" clip-rule="evenodd" d="M18.963 9.365h-5.926c-.655 0-1.185.541-1.185 1.209v11.48c0 .667.53 1.208 1.185 1.208h5.926c.654 0 1.185-.54 1.185-1.208v-11.48c0-.668-.53-1.209-1.185-1.209Zm-5.926-1.208c-1.31 0-2.37 1.082-2.37 2.417v11.48c0 1.335 1.06 2.417 2.37 2.417h5.926c1.31 0 2.37-1.082 2.37-2.417v-11.48c0-1.335-1.06-2.417-2.37-2.417h-5.926Z" fill="#000"/><path d="M10.667 10.438c0-1.26 1.06-2.281 2.37-2.281h5.926c1.31 0 2.37 1.021 2.37 2.281v3.993H10.667V10.44Z" fill="url(#b)"/><path fill-rule="evenodd" clip-rule="evenodd" d="M18.963 9.298h-5.926c-.655 0-1.185.51-1.185 1.14v2.853h8.296v-2.853c0-.63-.53-1.14-1.185-1.14Zm-5.926-1.141c-1.31 0-2.37 1.021-2.37 2.281v3.993h10.666V10.44c0-1.26-1.06-2.282-2.37-2.282h-5.926Z" fill="#000"/><defs><linearGradient id="a" x1="0" y1="16" x2="31.5" y2="16" gradientUnits="userSpaceOnUse"><stop offset=".509" stop-color="#E3E3E3"/><stop offset=".509" stop-color="#fff"/></linearGradient><linearGradient id="b" x1="16" y1="8.157" x2="16" y2="14.431" gradientUnits="userSpaceOnUse"><stop offset=".514" stop-color="#C9F7CA"/><stop offset=".514" stop-color="#71E775"/></linearGradient></defs></svg>